<?xml version="1.0" encoding="UTF-8" standalone="no"?>
<svg xmlns="http://www.w3.org/2000/svg" width="308" height="426" viewBox="0 0 308 426">
  <g transform="translate(0,426) scale(0.1,-0.1)" fill="#1b1c22" fill-rule="nonzero" stroke="none">
    <path d="M2015 2588 c33 -23 152 -104 265 -181 113 -77 246 -168 295 -202 50 -34 135 -92 190 -130 178 -121 254 -214 290 -355 71 -273 -71 -543 -340 -645 -47 -18 -90 -20 -752 -23 -387 -1 -703 1 -703 6 0 4 41 42 92 83 50 41 121 99 157 129 l65 55 516 5 c468 5 519 7 555 23 135 61 190 218 120 346 -16 29 -43 64 -60 77 -27 20 -248 172 -532 366 -326 221 -653 446 -679 465 l-29 22 245 1 245 0 60 -42z"/>
  </g>
</svg>
