<?xml version="1.0" encoding="UTF-8" standalone="no"?>
<svg xmlns="http://www.w3.org/2000/svg" width="308" height="426" viewBox="0 0 308 426">
  <g transform="translate(0,426) scale(0.1,-0.1)" fill="#5B6BDF" fill-rule="nonzero" stroke="none">
    <path d="M1062 2047 l123 -82 5 -149 c3 -98 9 -151 16 -153 7 -2 51 29 99 68 82 68 89 72 116 62 50 -19 208 -137 201 -150 -8 -13 -88 -81 -272 -230 -69 -55 -190 -155 -270 -222 -80 -66 -148 -121 -152 -121 -5 0 -8 239 -8 530 0 323 4 530 9 530 6 0 65 -37 133 -83z"/>
  </g>
</svg>
