<?xml version="1.0" encoding="UTF-8" standalone="no"?>
<svg xmlns="http://www.w3.org/2000/svg"
     width="1117" height="426"
     viewBox="0 0 1117 426">
  <g transform="translate(0.000000,426.000000) scale(0.100000,-0.100000)" fill="#5B6BDF" fill-rule="nonzero" stroke="none"><path d="M0 2130 m3075 988 c8 -95 1 -960 -8 -975 -7 -11 -97 42 -214 129 l-53 39 0 139
c0 76 -4 141 -9 145 -5 3 -47 -27 -93 -66 -46 -39 -88 -73 -94 -76 -12 -4
-234 146 -234 159 0 4 134 119 298 254 163 136 299 250 302 254 11 13 85 70
91 70 4 0 10 -33 14 -72z m-2013 -1071 l123 -82 5 -149 c3 -98 9 -151 16 -153
7 -2 51 29 99 68 82 68 89 72 116 62 50 -19 208 -137 201 -150 -8 -13 -88 -81
-272 -230 -69 -55 -190 -155 -270 -222 -80 -66 -148 -121 -152 -121 -5 0 -8
239 -8 530 0 323 4 530 9 530 6 0 65 -37 133 -83z"/></g>
  <g transform="translate(0.000000,426.000000) scale(0.100000,-0.100000)" fill="#1b1c22" fill-rule="nonzero" stroke="none"><path d="M0 2130 m2675 1024 c-33 -31 -107 -94 -164 -140 l-104 -84 -498 0 c-477 0 -501
-1 -553 -20 -156 -59 -206 -247 -102 -383 17 -22 130 -106 282 -209 347 -236
496 -337 584 -398 41 -28 134 -91 205 -140 72 -49 150 -103 175 -119 l44 -31
-248 0 -248 0 -391 268 c-216 147 -425 290 -466 317 -211 141 -294 309 -269
543 23 214 210 409 428 445 14 2 331 5 705 5 l680 1 -60 -55z m3685 -899 l0
-755 -145 0 -145 0 0 755 0 755 145 0 145 0 0 -755z m-4345 333 c33 -23 152
-104 265 -181 113 -77 246 -168 295 -202 50 -34 135 -92 190 -130 178 -121
254 -214 290 -355 71 -273 -71 -543 -340 -645 -47 -18 -90 -20 -752 -23 -387
-1 -703 1 -703 6 0 4 41 42 92 83 50 41 121 99 157 129 l65 55 516 5 c468 5
519 7 555 23 135 61 190 218 120 346 -16 29 -43 64 -60 77 -27 20 -248 172
-532 366 -326 221 -653 446 -679 465 l-29 22 245 1 245 0 60 -42z m2305 11
c96 -26 145 -55 207 -122 47 -52 64 -88 78 -169 l7 -38 -136 0 -136 0 -19 38
c-40 77 -88 102 -199 102 -132 0 -192 -35 -192 -111 0 -69 36 -91 189 -114
232 -35 365 -79 434 -144 16 -14 41 -48 55 -76 37 -69 38 -195 4 -270 -67
-146 -228 -219 -477 -218 -267 1 -452 101 -505 272 -34 107 -41 101 118 101
l137 0 23 -50 c34 -75 88 -103 207 -108 114 -5 164 8 204 53 38 44 40 83 5
124 -31 38 -79 52 -259 81 -244 39 -344 93 -402 219 -22 46 -25 63 -21 130 5
85 20 121 76 183 47 52 94 81 173 108 127 43 288 46 429 9z m1210 -5 c74 -23
170 -75 170 -93 0 -5 -38 -47 -85 -94 l-85 -86 -52 32 c-45 28 -62 32 -134 36
-71 2 -91 0 -130 -20 -66 -32 -113 -76 -135 -127 -38 -87 -53 -82 241 -83 143
-1 266 -2 273 -3 8 -1 11 11 9 34 -2 31 5 42 90 127 51 51 96 93 100 93 4 0
23 -33 42 -72 41 -85 66 -198 66 -298 l0 -70 -419 0 c-263 0 -422 -4 -426 -10
-3 -5 -1 -28 6 -50 l12 -40 -93 -95 c-52 -52 -97 -95 -100 -95 -16 0 -81 135
-99 207 -41 161 -21 333 55 469 122 219 423 322 694 238z m1711 -3 c31 -13 79
-43 107 -67 30 -26 53 -40 57 -34 4 6 5 32 4 58 l-3 47 129 3 129 3 -159 -163
c-88 -90 -161 -165 -162 -167 -1 -2 -22 14 -47 36 -53 47 -101 63 -184 63
-124 0 -215 -59 -267 -173 -45 -97 -35 -244 23 -335 14 -21 10 -26 -84 -122
l-98 -100 -27 26 c-74 70 -129 238 -129 389 0 106 32 235 77 314 61 105 181
195 308 233 86 25 249 20 326 -11z m1364 14 c72 -19 151 -54 185 -83 l25 -21
-94 -94 -93 -93 -49 24 c-65 33 -158 40 -233 18 -76 -22 -144 -88 -175 -169
-26 -70 -29 -193 -6 -257 8 -23 15 -43 15 -44 0 -1 -42 -46 -94 -100 -65 -68
-99 -97 -110 -93 -8 3 -29 33 -45 66 -119 236 -84 524 84 693 113 113 248 167
425 167 65 1 129 -5 165 -14z m1273 -127 l3 -138 -92 0 c-119 0 -163 -14 -220
-70 -77 -74 -82 -101 -87 -462 l-4 -308 -144 0 -144 0 0 550 0 550 140 0 139
0 7 -36 c4 -20 4 -58 1 -85 -6 -48 7 -77 20 -42 10 28 70 99 103 123 55 39
129 60 205 57 l70 -2 3 -137z m-2188 -708 l0 -681 -142 3 -143 3 -3 263 c-1
144 -5 262 -8 262 -3 0 -28 -20 -56 -44 -82 -75 -220 -114 -333 -96 -109 17
-225 63 -225 88 0 4 42 49 93 100 l93 93 43 -16 c51 -18 154 -20 202 -3 130
44 214 198 192 350 -4 29 -8 57 -8 61 0 7 285 297 293 297 1 0 2 -306 2 -680z m1236 617 c62 -95 94 -212 94 -342 0 -336 -241 -573 -581 -568 -105 1 -220 31
-306 79 -35 19 -63 38 -63 42 0 4 41 48 92 99 l91 92 45 -26 c35 -21 62 -27
122 -31 130 -7 220 38 276 141 42 78 47 237 9 330 -6 13 15 41 91 117 54 55
100 100 103 100 3 0 15 -15 27 -33z m-3163 -553 c63 -3 107 -10 107 -16 0 -25
-65 -137 -103 -177 -167 -175 -480 -218 -715 -97 -98 51 -98 43 2 144 l88 89
60 -30 c45 -24 77 -32 128 -35 99 -6 162 17 225 83 39 41 56 52 75 49 14 -2
73 -6 133 -10z"/></g>
  <text x="988" y="340"
        font-family="'Avenir Next', Avenir, 'Helvetica Neue', Helvetica, Arial, sans-serif"
        font-weight="500" font-size="42"
        fill="rgba(27,28,34,0.45)" text-anchor="end" letter-spacing="10">Labs</text>
</svg>