<?xml version="1.0" encoding="UTF-8" standalone="no"?>
<svg xmlns="http://www.w3.org/2000/svg" width="308" height="426" viewBox="0 0 308 426">
  <g transform="translate(0,426) scale(0.1,-0.1)" fill="#5B6BDF" fill-rule="nonzero" stroke="none">
    <path d="M0 2130 m3075 988 c8 -95 1 -960 -8 -975 -7 -11 -97 42 -214 129 l-53 39 0 139 c0 76 -4 141 -9 145 -5 3 -47 -27 -93 -66 -46 -39 -88 -73 -94 -76 -12 -4 -234 146 -234 159 0 4 134 119 298 254 163 136 299 250 302 254 11 13 85 70 91 70 4 0 10 -33 14 -72z"/>
  </g>
</svg>
