<?xml version="1.0" encoding="UTF-8" standalone="no"?>
<svg xmlns="http://www.w3.org/2000/svg" width="308" height="426" viewBox="0 0 308 426">
  <g transform="translate(0,426) scale(0.1,-0.1)" fill="#1b1c22" fill-rule="nonzero" stroke="none">
    <path d="M0 2130 m2675 1024 c-33 -31 -107 -94 -164 -140 l-104 -84 -498 0 c-477 0 -501 -1 -553 -20 -156 -59 -206 -247 -102 -383 17 -22 130 -106 282 -209 347 -236 496 -337 584 -398 41 -28 134 -91 205 -140 72 -49 150 -103 175 -119 l44 -31 -248 0 -248 0 -391 268 c-216 147 -425 290 -466 317 -211 141 -294 309 -269 543 23 214 210 409 428 445 14 2 331 5 705 5 l680 1 -60 -55z"/>
  </g>
</svg>
