<svg width="1280" height="720" viewBox="0 0 1280 720" fill="none" xmlns="http://www.w3.org/2000/svg">
  <defs>
    <linearGradient id="bg" x1="80" y1="60" x2="1200" y2="680" gradientUnits="userSpaceOnUse">
      <stop stop-color="#F7FAFC"/>
      <stop offset="1" stop-color="#E7EFF7"/>
    </linearGradient>
    <linearGradient id="panel" x1="120" y1="300" x2="1160" y2="620" gradientUnits="userSpaceOnUse">
      <stop stop-color="#0E2235"/>
      <stop offset="1" stop-color="#17364F"/>
    </linearGradient>
    <filter id="shadow" x="110" y="280" width="1060" height="360" filterUnits="userSpaceOnUse" color-interpolation-filters="sRGB">
      <feFlood flood-opacity="0" result="BackgroundImageFix"/>
      <feColorMatrix in="SourceAlpha" type="matrix" values="0 0 0 0 0 0 0 0 0 0 0 0 0 0 0 0 0 0 127 0" result="hardAlpha"/>
      <feOffset dy="20"/>
      <feGaussianBlur stdDeviation="20"/>
      <feColorMatrix type="matrix" values="0 0 0 0 0.0588 0 0 0 0 0.1333 0 0 0 0 0.2078 0 0 0 0.16 0"/>
      <feBlend mode="normal" in2="BackgroundImageFix" result="effect1_dropShadow_0_1"/>
      <feBlend mode="normal" in="SourceGraphic" in2="effect1_dropShadow_0_1" result="shape"/>
    </filter>
    <style>
      .eyebrow { font: 700 14px 'Segoe UI', Arial, sans-serif; letter-spacing: 0.20em; fill: #D88A00; }
      .title { font: 700 38px 'Segoe UI', Arial, sans-serif; fill: #0B1825; }
      .subtitle { font: 400 18px 'Segoe UI', Arial, sans-serif; fill: #45607A; }
      .pill { font: 700 14px 'Segoe UI', Arial, sans-serif; fill: #102235; }
      .panelLabel { font: 700 13px 'Segoe UI', Arial, sans-serif; letter-spacing: 0.14em; fill: #8FB0CA; }
      .panelTitle { font: 700 40px 'Segoe UI', Arial, sans-serif; fill: #F7FAFC; }
      .panelText { font: 400 18px 'Segoe UI', Arial, sans-serif; fill: #D1DDE8; }
      .cardTitle { font: 700 20px 'Segoe UI', Arial, sans-serif; fill: #F2F7FB; }
      .cardText { font: 400 15px 'Segoe UI', Arial, sans-serif; fill: #B7CADB; }
      .metricBig { font: 700 64px 'Segoe UI', Arial, sans-serif; fill: #FFF8ED; }
      .metricLabel { font: 700 16px 'Segoe UI', Arial, sans-serif; letter-spacing: 0.12em; fill: #FFF1CC; }
      .metricText { font: 400 15px 'Segoe UI', Arial, sans-serif; fill: #FFF6E1; }
    </style>
  </defs>

  <rect width="1280" height="720" rx="32" fill="url(#bg)"/>

  <text x="120" y="118" class="eyebrow">SELQOR FORGE</text>
  <text x="120" y="172" class="title">Turn raw API sprawl into curated MCP servers.</text>
  <text x="120" y="208" class="subtitle">Preserve coverage, cut tool noise, review security, and ship TypeScript or Rust targets.</text>

  <rect x="120" y="252" width="170" height="42" rx="21" fill="#FFFFFF" stroke="#D6E1EC"/>
  <text x="154" y="278" class="pill">Public v0.1</text>
  <rect x="306" y="252" width="220" height="42" rx="21" fill="#FFFFFF" stroke="#D6E1EC"/>
  <text x="337" y="278" class="pill">Local-only dashboard</text>
  <rect x="542" y="252" width="196" height="42" rx="21" fill="#FFFFFF" stroke="#D6E1EC"/>
  <text x="573" y="278" class="pill">TypeScript + Rust</text>

  <g filter="url(#shadow)">
    <rect x="160" y="332" width="960" height="286" rx="30" fill="url(#panel)"/>
  </g>

  <text x="204" y="390" class="panelLabel">ICON-LED PRODUCT MAP</text>
  <text x="204" y="444" class="panelTitle">From dense API surface</text>
  <text x="204" y="492" class="panelTitle">to agent-usable tool plan</text>
  <text x="204" y="540" class="panelText">A full spec goes in. A reviewed, higher-signal MCP target comes out.</text>

  <g>
    <rect x="204" y="570" width="300" height="28" rx="14" fill="#13314A"/>
    <text x="227" y="589" class="cardText">OPENAPI -> UASF -> CURATION -> SECURITY -> TARGETS</text>
  </g>

  <g>
    <circle cx="842" cy="412" r="76" fill="#10283D" stroke="#315A7B" stroke-width="2"/>
    <circle cx="802" cy="380" r="9" fill="#D88A00"/>
    <circle cx="776" cy="420" r="9" fill="#B9CBDB"/>
    <circle cx="808" cy="452" r="9" fill="#B9CBDB"/>
    <circle cx="864" cy="366" r="9" fill="#B9CBDB"/>
    <circle cx="894" cy="414" r="9" fill="#D88A00"/>
    <circle cx="858" cy="456" r="9" fill="#B9CBDB"/>
    <circle cx="918" cy="388" r="9" fill="#B9CBDB"/>
    <line x1="802" y1="380" x2="842" y2="412" stroke="#8FB0CA" stroke-width="3"/>
    <line x1="776" y1="420" x2="842" y2="412" stroke="#8FB0CA" stroke-width="3"/>
    <line x1="808" y1="452" x2="842" y2="412" stroke="#8FB0CA" stroke-width="3"/>
    <line x1="864" y1="366" x2="842" y2="412" stroke="#8FB0CA" stroke-width="3"/>
    <line x1="894" y1="414" x2="842" y2="412" stroke="#8FB0CA" stroke-width="3"/>
    <line x1="858" y1="456" x2="842" y2="412" stroke="#8FB0CA" stroke-width="3"/>
    <line x1="918" y1="388" x2="842" y2="412" stroke="#8FB0CA" stroke-width="3"/>
    <path d="M934 412H968" stroke="#D88A00" stroke-width="4" stroke-linecap="round"/>
    <path d="M968 412L956 404V420L968 412Z" fill="#D88A00"/>
  </g>

  <g>
    <rect x="986" y="352" width="94" height="120" rx="22" fill="#D88A00"/>
    <text x="1007" y="416" class="metricBig">20</text>
    <text x="1007" y="444" class="metricLabel">TOOL TARGET</text>
    <text x="1007" y="468" class="metricText">Designed to stay</text>
    <text x="1007" y="488" class="metricText">inside agent range</text>
  </g>

  <g>
    <rect x="186" y="640" width="278" height="56" rx="20" fill="#10283D"/>
    <rect x="494" y="640" width="278" height="56" rx="20" fill="#12314A"/>
    <rect x="802" y="640" width="278" height="56" rx="20" fill="#143650"/>
    <text x="214" y="663" class="cardTitle">Full API surface in</text>
    <text x="214" y="685" class="cardText">Start from the real spec, not a subset.</text>
    <text x="522" y="663" class="cardTitle">Curated plan out</text>
    <text x="522" y="685" class="cardText">Group endpoints into usable MCP tools.</text>
    <text x="830" y="663" class="cardTitle">Review before shipping</text>
    <text x="830" y="685" class="cardText">Scanner, dashboard, CI, hardened runtime.</text>
  </g>
</svg>
